<?xml version="1.0" encoding="UTF-8"?>
<svg version="1.1" xmlns="http://www.w3.org/2000/svg" width="1500" height="500">
<path d="M0 0 C26.4 0 52.8 0 80 0 C80 26.4 80 52.8 80 80 C75.05 80 70.1 80 65 80 C65.0395679 84.89153471 65.0395679 84.89153471 65.09008789 89.78295898 C65.09724913 91.52221717 65.05024702 93.26145304 65 95 C64 96 64 96 60.62109375 96.09765625 C59.22652508 96.09191424 57.83198403 96.07890228 56.4375 96.0625 C53.983125 96.041875 51.52875 96.02125 49 96 C49 100.95 49 105.9 49 111 C43.72 111 38.44 111 33 111 C33 116.28 33 121.56 33 127 C28.38 127 23.76 127 19 127 C19 131.62 19 136.24 19 141 C15.99686252 142.50156874 13.20932478 142.09281204 9.875 142.0625 C8.59367187 142.05347656 7.31234375 142.04445313 5.9921875 142.03515625 C4.51105469 142.01775391 4.51105469 142.01775391 3 142 C3.01160156 143.07121094 3.02320313 144.14242187 3.03515625 145.24609375 C3.04453299 146.64322743 3.05363331 148.04036299 3.0625 149.4375 C3.07087891 150.14455078 3.07925781 150.85160156 3.08789062 151.58007812 C3.09653588 153.38693559 3.05220011 155.19387603 3 157 C2 158 2 158 -1.37890625 158.09765625 C-2.77347492 158.09191424 -4.16801597 158.07890228 -5.5625 158.0625 C-8.016875 158.041875 -10.47125 158.02125 -13 158 C-13 162.95 -13 167.9 -13 173 C-17.95 173 -22.9 173 -28 173 C-28 177.95 -28 182.9 -28 188 C-32.95 188 -37.9 188 -43 188 C-43 193.28 -43 198.56 -43 204 C-47.82387067 204.0229102 -52.64755389 204.04283686 -57.47143555 204.05493164 C-59.11369464 204.05997174 -60.75594923 204.06680378 -62.39819336 204.07543945 C-64.75375479 204.08751926 -67.10925709 204.09323139 -69.46484375 204.09765625 C-70.20339096 204.10281754 -70.94193817 204.10797882 -71.7028656 204.11329651 C-73.46898088 204.1134925 -75.23497146 204.06194719 -77 204 C-78 203 -78 203 -78.09765625 199.62109375 C-78.09191424 198.22652508 -78.07890228 196.83198403 -78.0625 195.4375 C-78.041875 192.983125 -78.02125 190.52875 -78 188 C-83.28 188 -88.56 188 -94 188 C-94 183.05 -94 178.1 -94 173 C-98.62 173 -103.24 173 -108 173 C-108 151.55 -108 130.1 -108 108 C-103.38 108 -98.76 108 -94 108 C-94.01160156 106.92878906 -94.02320313 105.85757813 -94.03515625 104.75390625 C-94.04453299 103.35677257 -94.05363331 101.95963701 -94.0625 100.5625 C-94.07087891 99.85544922 -94.07925781 99.14839844 -94.08789062 98.41992188 C-94.09653588 96.61306441 -94.05220011 94.80612397 -94 93 C-93 92 -93 92 -89.62109375 91.90234375 C-88.22652508 91.90808576 -86.83198403 91.92109772 -85.4375 91.9375 C-82.983125 91.958125 -80.52875 91.97875 -78 92 C-78 87.05 -78 82.1 -78 77 C-72.72 77 -67.44 77 -62 77 C-62 71.72 -62 66.44 -62 61 C-57.05 61 -52.1 61 -47 61 C-47 56.05 -47 51.1 -47 46 C-42.05 46 -37.1 46 -32 46 C-32.0395679 41.10846529 -32.0395679 41.10846529 -32.09008789 36.21704102 C-32.09724913 34.47778283 -32.05024702 32.73854696 -32 31 C-31 30 -31 30 -27.62109375 29.90234375 C-26.22652508 29.90808576 -24.83198403 29.92109772 -23.4375 29.9375 C-20.983125 29.958125 -18.52875 29.97875 -16 30 C-16 25.05 -16 20.1 -16 15 C-10.72 15 -5.44 15 0 15 C0 10.05 0 5.1 0 0 Z " fill="#641CFF" transform="translate(271,148)"/>
<path d="M0 0 C16.5 0 33 0 50 0 C50 3.96 50 7.92 50 12 C54.29 12 58.58 12 63 12 C63 32.79 63 53.58 63 75 C58.71 75 54.42 75 50 75 C50 78.96 50 82.92 50 87 C33.5 87 17 87 0 87 C0 58.29 0 29.58 0 0 Z M13 13 C13 33.13 13 53.26 13 74 C24.88 74 36.76 74 49 74 C49 53.87 49 33.74 49 13 C37.12 13 25.24 13 13 13 Z " fill="#631CFF" transform="translate(1004,201)"/>
<path d="M0 0 C5.39346988 -0.02464849 10.78690725 -0.04283531 16.18041992 -0.05493164 C18.01668875 -0.05997231 19.85295354 -0.06680477 21.68920898 -0.07543945 C24.32276401 -0.08751672 26.95626616 -0.09323081 29.58984375 -0.09765625 C30.41588608 -0.10281754 31.24192841 -0.10797882 32.09300232 -0.11329651 C34.06236368 -0.11349205 36.03161614 -0.06204152 38 0 C39 1 39 1 39.09765625 3.72265625 C39.06510417 6.81510417 39.03255208 9.90755208 39 13 C42.96 13 46.92 13 51 13 C51 37.75 51 62.5 51 88 C46.71 88 42.42 88 38 88 C38 71.5 38 55 38 38 C25.79 38 13.58 38 1 38 C1 54.5 1 71 1 88 C-3.29 88 -7.58 88 -12 88 C-12 63.25 -12 38.5 -12 13 C-8.04 13 -4.08 13 0 13 C0 8.71 0 4.42 0 0 Z M1 13 C1 16.96 1 20.92 1 25 C13.21 25 25.42 25 38 25 C38 21.04 38 17.08 38 13 C25.79 13 13.58 13 1 13 Z " fill="#641BFF" transform="translate(432,199)"/>
<path d="M0 0 C5.39346988 -0.02464849 10.78690725 -0.04283531 16.18041992 -0.05493164 C18.01668875 -0.05997231 19.85295354 -0.06680477 21.68920898 -0.07543945 C24.32276401 -0.08751672 26.95626616 -0.09323081 29.58984375 -0.09765625 C30.41588608 -0.10281754 31.24192841 -0.10797882 32.09300232 -0.11329651 C34.06236368 -0.11349205 36.03161614 -0.06204152 38 0 C39 1 39 1 39.09765625 3.72265625 C39.06510417 6.81510417 39.03255208 9.90755208 39 13 C42.96 13 46.92 13 51 13 C51 21.25 51 29.5 51 38 C34.5 38 18 38 1 38 C1 41.96 1 45.92 1 50 C17.5 50 34 50 51 50 C51 54.29 51 58.58 51 63 C34.17 63 17.34 63 0 63 C0 59.04 0 55.08 0 51 C-3.96 51 -7.92 51 -12 51 C-12 38.46 -12 25.92 -12 13 C-8.04 13 -4.08 13 0 13 C0 8.71 0 4.42 0 0 Z M1 13 C1 16.96 1 20.92 1 25 C13.21 25 25.42 25 38 25 C38 21.04 38 17.08 38 13 C25.79 13 13.58 13 1 13 Z " fill="#641BFF" transform="translate(582,224)"/>
<path d="M0 0 C4.29 0 8.58 0 13 0 C13 12.54 13 25.08 13 38 C25.21 38 37.42 38 50 38 C50 25.46 50 12.92 50 0 C54.29 0 58.58 0 63 0 C63 20.79 63 41.58 63 63 C59.04 63 55.08 63 51 63 C51.020625 64.959375 51.04125 66.91875 51.0625 68.9375 C51.08377188 70.95832876 51.07244053 72.98035801 51 75 C50 76 50 76 46.39819336 76.11352539 C44.79540144 76.11336625 43.1926044 76.10767063 41.58984375 76.09765625 C40.74780899 76.0962413 39.90577423 76.09482635 39.03822327 76.09336853 C36.33794665 76.08775263 33.63775172 76.07519748 30.9375 76.0625 C29.11132932 76.05748705 27.28515734 76.05292379 25.45898438 76.04882812 C20.97262458 76.03777804 16.48632616 76.02050279 12 76 C12 71.71 12 67.42 12 63 C24.54 63 37.08 63 50 63 C50 59.04 50 55.08 50 51 C37.46 51 24.92 51 12 51 C12 46.71 12 42.42 12 38 C8.04 38 4.08 38 0 38 C0 25.46 0 12.92 0 0 Z " fill="#641BFF" transform="translate(770,224)"/>
<path d="M0 0 C4.29 0 8.58 0 13 0 C13 12.54 13 25.08 13 38 C16.96 38 20.92 38 25 38 C25 33.71 25 29.42 25 25 C29.14587582 24.9731755 33.29158038 24.95324685 37.4375 24.9375 C38.62150391 24.92912109 39.80550781 24.92074219 41.02539062 24.91210938 C42.15009766 24.90888672 43.27480469 24.90566406 44.43359375 24.90234375 C45.47572021 24.89710693 46.51784668 24.89187012 47.59155273 24.88647461 C50 25 50 25 51 26 C51.14355117 30.00220653 51.04216403 33.99441683 51 38 C54.96 38 58.92 38 63 38 C63 54.5 63 71 63 88 C58.71 88 54.42 88 50 88 C50 71.5 50 55 50 38 C42.08 38 34.16 38 26 38 C26 41.96 26 45.92 26 50 C25.67 50.33 25.34 50.66 25 51 C21.04 51 17.08 51 13 51 C13 63.21 13 75.42 13 88 C8.71 88 4.42 88 0 88 C0 58.96 0 29.92 0 0 Z " fill="#641BFF" transform="translate(695,199)"/>
<path d="M0 0 C16.5 0 33 0 50 0 C50 4.62 50 9.24 50 14 C33.83 14 17.66 14 1 14 C1 17.63 1 21.26 1 25 C13.21 25 25.42 25 38 25 C38 29.29 38 33.58 38 38 C41.96 38 45.92 38 50 38 C50 42.29 50 46.58 50 51 C46.04 51 42.08 51 38 51 C38 54.96 38 58.92 38 63 C21.17 63 4.34 63 -13 63 C-13 58.71 -13 54.42 -13 50 C3.5 50 20 50 37 50 C37 46.37 37 42.74 37 39 C24.79 39 12.58 39 0 39 C0 34.71 0 30.42 0 26 C-4.29 26 -8.58 26 -13 26 C-13 21.71 -13 17.42 -13 13 C-8.71 13 -4.42 13 0 13 C0 8.71 0 4.42 0 0 Z " fill="#631BFF" transform="translate(1240,225)"/>
<path d="M0 0 C16.83 0 33.66 0 51 0 C51 4.29 51 8.58 51 13 C34.5 13 18 13 1 13 C1 16.96 1 20.92 1 25 C2.11560303 24.99476318 3.23120605 24.98952637 4.38061523 24.98413086 C8.50479333 24.96608225 12.62896791 24.95456851 16.75317383 24.94506836 C18.54094021 24.94002782 20.32870245 24.93319546 22.11645508 24.92456055 C24.68051168 24.9124827 27.24451397 24.90676906 29.80859375 24.90234375 C30.6127623 24.89718246 31.41693085 24.89202118 32.24546814 24.88670349 C34.16401715 24.88650785 36.08245368 24.93798017 38 25 C39 26 39 26 39.09765625 28.72265625 C39.06510417 31.81510417 39.03255208 34.90755208 39 38 C42.96 38 46.92 38 51 38 C51 42.29 51 46.58 51 51 C47.04 51 43.08 51 39 51 C39 54.96 39 58.92 39 63 C22.17 63 5.34 63 -12 63 C-12 58.71 -12 54.42 -12 50 C4.5 50 21 50 38 50 C38 46.04 38 42.08 38 38 C25.46 38 12.92 38 0 38 C0 34.04 0 30.08 0 26 C-3.96 26 -7.92 26 -12 26 C-12 21.71 -12 17.42 -12 13 C-8.04 13 -4.08 13 0 13 C0 8.71 0 4.42 0 0 Z " fill="#641BFF" transform="translate(857,224)"/>
<path d="M0 0 C8.25 0 16.5 0 25 0 C26 1 26 1 26.09765625 3.72265625 C26.08605469 4.82480469 26.07445312 5.92695313 26.0625 7.0625 C26.05347656 8.16722656 26.04445313 9.27195313 26.03515625 10.41015625 C26.02355469 11.26480469 26.01195312 12.11945313 26 13 C29.63 13 33.26 13 37 13 C37 8.71 37 4.42 37 0 C47.05859375 -0.09765625 47.05859375 -0.09765625 50 0 C51 1 51 1 51.09765625 3.72265625 C51.06510417 6.81510417 51.03255208 9.90755208 51 13 C54.96 13 58.92 13 63 13 C63 29.5 63 46 63 63 C58.71 63 54.42 63 50 63 C50 46.5 50 30 50 13 C46.04 13 42.08 13 38 13 C38 21.25 38 29.5 38 38 C33.71 38 29.42 38 25 38 C25 29.75 25 21.5 25 13 C21.04 13 17.08 13 13 13 C13 29.5 13 46 13 63 C8.71 63 4.42 63 0 63 C0 42.21 0 21.42 0 0 Z " fill="#641BFF" transform="translate(495,224)"/>
<path d="M0 0 C1.60279192 0.00015914 3.20558896 0.00585476 4.80834961 0.01586914 C5.65038437 0.01728409 6.49241913 0.01869904 7.35997009 0.02015686 C10.06024671 0.02577276 12.76044163 0.03832791 15.46069336 0.05102539 C17.28686404 0.05603834 19.11303602 0.06060161 20.93920898 0.06469727 C25.42556878 0.07574735 29.9118672 0.0930226 34.39819336 0.11352539 C34.39819336 4.40352539 34.39819336 8.69352539 34.39819336 13.11352539 C38.35819336 13.11352539 42.31819336 13.11352539 46.39819336 13.11352539 C46.39819336 25.65352539 46.39819336 38.19352539 46.39819336 51.11352539 C42.43819336 51.11352539 38.47819336 51.11352539 34.39819336 51.11352539 C34.39819336 55.07352539 34.39819336 59.03352539 34.39819336 63.11352539 C21.52819336 63.11352539 8.65819336 63.11352539 -4.60180664 63.11352539 C-4.60180664 59.15352539 -4.60180664 55.19352539 -4.60180664 51.11352539 C-8.56180664 51.11352539 -12.52180664 51.11352539 -16.60180664 51.11352539 C-16.60180664 38.57352539 -16.60180664 26.03352539 -16.60180664 13.11352539 C-12.64180664 13.11352539 -8.68180664 13.11352539 -4.60180664 13.11352539 C-4.62243164 11.15415039 -4.64305664 9.19477539 -4.66430664 7.17602539 C-4.68557852 5.15519663 -4.67424717 3.13316738 -4.60180664 1.11352539 C-3.60180664 0.11352539 -3.60180664 0.11352539 0 0 Z M-3.60180664 14.11352539 C-3.60180664 25.99352539 -3.60180664 37.87352539 -3.60180664 50.11352539 C8.60819336 50.11352539 20.81819336 50.11352539 33.39819336 50.11352539 C33.39819336 38.23352539 33.39819336 26.35352539 33.39819336 14.11352539 C21.18819336 14.11352539 8.97819336 14.11352539 -3.60180664 14.11352539 Z " fill="#621BFF" transform="translate(1094.601806640625,224.886474609375)"/>
<path d="M0 0 C12.54 0 25.08 0 38 0 C38 4.29 38 8.58 38 13 C42.29 13 46.58 13 51 13 C51 17.29 51 21.58 51 26 C46.38 26 41.76 26 37 26 C37 22.04 37 18.08 37 14 C25.12 14 13.24 14 1 14 C1 25.88 1 37.76 1 50 C12.88 50 24.76 50 37 50 C37 46.04 37 42.08 37 38 C41.62 38 46.24 38 51 38 C51 42.29 51 46.58 51 51 C46.71 51 42.42 51 38 51 C38 54.96 38 58.92 38 63 C25.46 63 12.92 63 0 63 C0 59.04 0 55.08 0 51 C-3.96 51 -7.92 51 -12 51 C-12 38.46 -12 25.92 -12 13 C-8.04 13 -4.08 13 0 13 C0 8.71 0 4.42 0 0 Z " fill="#631BFF" transform="translate(1165,225)"/>
<path d="M0 0 C10.05859375 -0.09765625 10.05859375 -0.09765625 13 0 C14 1 14 1 14.11352539 3.31665039 C14.10828857 4.31688232 14.10305176 5.31711426 14.09765625 6.34765625 C14.09443359 7.42724609 14.09121094 8.50683594 14.08789062 9.61914062 C14.07951172 10.75544922 14.07113281 11.89175781 14.0625 13.0625 C14.05798828 14.20267578 14.05347656 15.34285156 14.04882812 16.51757812 C14.0369976 19.34507418 14.0190615 22.17254345 14 25 C17.96 25 21.92 25 26 25 C26 29.29 26 33.58 26 38 C22.04 38 18.08 38 14 38 C14 50.21 14 62.42 14 75 C17.96 75 21.92 75 26 75 C26 79.29 26 83.58 26 88 C21.71 88 17.42 88 13 88 C13 84.04 13 80.08 13 76 C8.71 76 4.42 76 0 76 C0 63.46 0 50.92 0 38 C-3.96 38 -7.92 38 -12 38 C-12 33.71 -12 29.42 -12 25 C-8.04 25 -4.08 25 0 25 C0 16.75 0 8.5 0 0 Z " fill="#641AFF" transform="translate(932,199)"/>
<path d="M0 0 C10.05859375 -0.09765625 10.05859375 -0.09765625 13 0 C14 1 14 1 14.11352539 3.31665039 C14.10828857 4.31688232 14.10305176 5.31711426 14.09765625 6.34765625 C14.09443359 7.42724609 14.09121094 8.50683594 14.08789062 9.61914062 C14.07951172 10.75544922 14.07113281 11.89175781 14.0625 13.0625 C14.05798828 14.20267578 14.05347656 15.34285156 14.04882812 16.51757812 C14.0369976 19.34507418 14.0190615 22.17254345 14 25 C17.96 25 21.92 25 26 25 C26 29.29 26 33.58 26 38 C22.04 38 18.08 38 14 38 C14 50.21 14 62.42 14 75 C17.96 75 21.92 75 26 75 C26 79.29 26 83.58 26 88 C21.71 88 17.42 88 13 88 C13 84.04 13 80.08 13 76 C8.71 76 4.42 76 0 76 C0 63.46 0 50.92 0 38 C-3.96 38 -7.92 38 -12 38 C-12 33.71 -12 29.42 -12 25 C-8.04 25 -4.08 25 0 25 C0 16.75 0 8.5 0 0 Z " fill="#641AFF" transform="translate(657,199)"/>
</svg>
